<mxfile host="app.diagrams.net" modified="2024-07-18T09:07:41.921Z" agent="Mozilla/5.0 (Macintosh; Intel Mac OS X 10_15_7) AppleWebKit/537.36 (KHTML, like Gecko) Chrome/126.0.0.0 Safari/537.36" version="24.6.2" etag="tsOjBGogs-JpeOpHE13r" type="github">
  <diagram name="Page-1" id="Axo6UeDu1lwkVSqLNtCO">
    <mxGraphModel>
      <root>
        <mxCell id="0" />
        <mxCell id="1" parent="0" />
      </root>
    </mxGraphModel>
  </diagram>
</mxfile>
